General                          : ChattChitto RG - Movies Release
==========  
Complete name                    : Pandorum 2009 BDRip.MP4
Format                           : MPEG-4
Format profile                   : Base Media
Codec ID                         : isom
File size                        : 2.02 GiB
Duration                         : 1h 48mn
Overall bit rate                 : 2 671 Kbps
Encoded date                     : UTC 2010-02-02 19:36:01

Video
==========
ID                               : 1
Format                           : AVC
Format/Info                      : Advanced Video Codec
Format profile                   : High@L3.1
Format settings, CABAC           : Yes
Format settings, ReFrames        : 3 frames
Codec ID                         : avc1
Codec ID/Info                    : Advanced Video Coding
Duration                         : 1h 48mn
Bit rate mode                    : Variable
Bit rate                         : 2 300 Kbps
Maximum bit rate                 : 35.2 Mbps
Width                            : 1 280 pixels
Height                           : 688 pixels
Display aspect ratio             : 1.860
Frame rate mode                  : Constant
Frame rate                       : 23.976 fps
Resolution                       : 8 bits
Colorimetry                      : 4:2:0
Scan type                        : Progressive
Bits/(Pixel*Frame)               : 0.109
Stream size                      : 1.74 GiB (86%)
Writing library                  : x264
Encoded date                     : UTC 2010-02-02 18:49:40

Audio
==========
ID                               : 2
Format                           : AAC
Format/Info                      : Advanced Audio Codec
Format version                   : Version 4
Format profile                   : LC
Format settings, SBR             : No
Codec ID                         : 40
Duration                         : 1h 48mn
Bit rate mode                    : Variable
Bit rate                         : 368 Kbps
Maximum bit rate                 : 534 Kbps
Channel(s)                       : 6 channels
Channel positions                : Front: L C R, Rear: L R, LFE
Sampling rate                    : 48.0 KHz
Stream size                      : 284 MiB (14%)
Encoded date                     : UTC 2010-02-02 19:37:12

Subtitles                        : English/Spanish [.srt files]



----------------------------------------------------
IMDB Link: http://www.imdb.com/title/tt1188729/
----------------------------------------------------


Screen Shots:
==============
http://bayimg.com/FAkOMaaCC
http://bayimg.com/faKoOAacC
http://bayimg.com/FAkOpAAcC
http://bayimg.com/GAkoaaAcc
http://bayimg.com/GakoCaACC



Plot:
======
When two men emerge from a deep sleep in the middle of space, they discover that 
they have no memories of who they are and where they're going. But their memory 
loss pales in comparison to the problem of the murderous warriors on board their 
ship who don't want to leave anyone alive.


Source:
========
Pandorum 2009 Blue-Ray 1080p MPEG-4 AVC/Dolby TrueHD Audio 5.1 [23.8Gb]


Notes:
=======
ChattChitto RG Encourages Burning this Film with ConvertXtoDVD.
Enhanced for your viewing pleasure ;)